<svg xmlns="http://www.w3.org/2000/svg" width="101" height="37" viewBox="0 0 101 37">
    <g fill="none" fill-rule="nonzero">
        <path fill="rgb(176,195,205)" d="M63.985 17.876c1.807-1.246 2.689-2.939 2.689-5.16v-.07c0-1.76-.57-3.196-1.745-4.389C63.472 6.776 61.231 6 58.435 6H47v25h11.71c5.906 0 9.29-2.561 9.29-7.037v-.069c0-2.87-1.244-4.75-4.015-6.018zm-5.282 7.681h-5.852V20.99h5.685c2.327 0 3.508.755 3.508 2.25v.07c0 1.491-1.124 2.248-3.337 2.248h-.004zm-5.856-9.76v-4.362h4.801c1.398 0 3.064.37 3.064 2.111v.069c0 1.448-1.146 2.181-3.406 2.181h-4.459zM88.367 6H79v25h9.367c3.562 0 6.796-1.281 9.104-3.607 2.275-2.29 3.529-5.449 3.529-8.89v-.07C101 11.226 95.684 6 88.367 6zm6.595 12.494v.069c0 4.1-2.646 6.852-6.595 6.852h-3.564v-13.84h3.564c3.943 0 6.595 2.78 6.595 6.92zM73 6.002c1.656 0 2.999 1.36 3 3.04V31h-6V6l3 .002z"/>
        <path fill="rgb(176,195,205)" d="M21.025 21.87c-3.155 5.149 6.981 5.228 2.29 14.848-.136.023-.273.049-.413.07-7.864 1.158-15.663-2.484-19.87-9.28A20.295 20.295 0 0 1 3.5 5.442c-.509 11.625 20.472 11.613 17.525 16.419v.009zm4.473 14.343c1.078-2.025 3.43-4.978 8.46-10.932 7.519-8.903-14.764-5.913-18.582-12.648C12.23 7.081 23.936 3.09 31.007 0c6.524 4.336 9.946 12.103 8.761 19.888-1.184 7.784-6.757 14.162-14.27 16.33v-.005zm-6.603-25.407c-.749.396.593 2.154 4.027 2.247 3.434.094-.993-3.862-4.027-2.247zm7.581 1.87c-2.575-.842-.88 1.235.344 1.372 1.224.138 1.48-.777-.344-1.373zm2.687 2.032c-.857-.036-1.01.484.276.76 1.816.386.58-.725-.276-.76z"/>
    </g>
</svg>
