<svg xmlns="http://www.w3.org/2000/svg" xmlns:xlink="http://www.w3.org/1999/xlink" width="138" height="31" viewBox="0 0 138 31">
    <defs>
        <path id="a" d="M.264 15.596c0 8.436 6.838 15.273 15.274 15.273 8.434 0 15.273-6.837 15.273-15.273C30.81 7.161 23.973.322 15.537.322 7.102.323.264 7.162.264 15.596"/>
        <path id="c" d="M.264 15.596c0 8.436 6.838 15.273 15.274 15.273 8.434 0 15.273-6.837 15.273-15.273C30.81 7.161 23.973.322 15.537.322 7.102.323.264 7.162.264 15.596"/>
        <path id="e" d="M.264 15.596c0 8.436 6.838 15.273 15.274 15.273 8.434 0 15.273-6.837 15.273-15.273C30.81 7.161 23.973.322 15.537.322 7.102.323.264 7.162.264 15.596"/>
        <path id="g" d="M.264 15.596c0 8.436 6.838 15.273 15.274 15.273 8.434 0 15.273-6.837 15.273-15.273C30.81 7.161 23.973.322 15.537.322 7.102.323.264 7.162.264 15.596"/>
        <path id="i" d="M.264 15.596c0 8.436 6.838 15.273 15.274 15.273 8.434 0 15.273-6.837 15.273-15.273C30.81 7.161 23.973.322 15.537.322 7.102.323.264 7.162.264 15.596"/>
        <path id="k" d="M.264 15.596c0 8.436 6.838 15.273 15.274 15.273 8.434 0 15.273-6.837 15.273-15.273C30.81 7.161 23.973.322 15.537.322 7.102.323.264 7.162.264 15.596z"/>
        <path id="m" d="M.264 15.596c0 8.436 6.838 15.273 15.274 15.273 8.434 0 15.273-6.837 15.273-15.273C30.81 7.161 23.973.322 15.537.322 7.102.323.264 7.162.264 15.596z"/>
        <path id="o" d="M.264 15.596c0 8.436 6.838 15.273 15.274 15.273 8.434 0 15.273-6.837 15.273-15.273C30.81 7.161 23.973.322 15.537.322 7.102.323.264 7.162.264 15.596z"/>
    </defs>
    <g fill="none" fill-rule="evenodd">
        <text font-family="Gotham-Medium, Gotham" font-size="22.407" font-weight="400">
            <tspan x="46" y="22" fill="#2F2F2F">D</tspan> <tspan x="63.522" y="22" fill="#2F2F2F" letter-spacing="-.112">a</tspan> <tspan x="76.451" y="22" fill="#2F2F2F">ta</tspan> <tspan x="98.79" y="22" fill="#3369DE">Mig</tspan>
        </text>
        <g transform="translate(.338)">
            <mask id="b" fill="#fff">
                <use xlink:href="#a"/>
            </mask>
            <path fill="#3369DE" d="M30.81 15.596c0 8.436-6.837 15.274-15.273 15.274C7.102 30.87.264 24.032.264 15.596.264 7.161 7.102.323 15.537.323c8.436 0 15.274 6.838 15.274 15.273" mask="url(#b)"/>
        </g>
        <g transform="translate(.338)">
            <mask id="d" fill="#fff">
                <use xlink:href="#c"/>
            </mask>
            <path fill="#FFF" d="M17.068 14.125a5.125 5.125 0 1 1-10.251 0 5.125 5.125 0 0 1 10.25 0" mask="url(#d)"/>
        </g>
        <g transform="translate(.338)">
            <mask id="f" fill="#fff">
                <use xlink:href="#e"/>
            </mask>
            <path fill="#FFF" d="M21.84 21.855a2.994 2.994 0 1 1-4.234-4.233 2.994 2.994 0 0 1 4.235 4.233" mask="url(#f)"/>
        </g>
        <g transform="translate(.338)">
            <mask id="h" fill="#fff">
                <use xlink:href="#g"/>
            </mask>
            <path fill="#FFF" d="M27.525 12.038a3.02 3.02 0 1 1-6.04 0 3.02 3.02 0 0 1 6.04 0" mask="url(#h)"/>
        </g>
        <g transform="translate(.338)">
            <mask id="j" fill="#fff">
                <use xlink:href="#i"/>
            </mask>
            <path fill="#FFF" d="M6.682 19.517a3.364 3.364 0 1 1-4.758 4.756 3.364 3.364 0 0 1 4.758-4.756" mask="url(#j)"/>
        </g>
        <g transform="translate(.338)">
            <mask id="l" fill="#fff">
                <use xlink:href="#k"/>
            </mask>
            <path fill="#FFF" d="M5.41 18.719c.673.298 1.4.24 1.853-.214.482-.482.518-1.272.155-1.979l2.344 2.24c-.707-.364-1.6-.327-2.082.155-.454.454-.512 1.18-.214 1.853L5.41 18.72z" mask="url(#l)"/>
        </g>
        <g transform="translate(.338)">
            <mask id="n" fill="#fff">
                <use xlink:href="#m"/>
            </mask>
            <path fill="#FFF" d="M18.235 17.139a1.016 1.016 0 0 1-1.448-1.336L15.49 17.82a.849.849 0 0 1 1.49.56c0 .13-.029.254-.081.364l1.337-1.606z" mask="url(#n)"/>
        </g>
        <g transform="translate(.338)">
            <mask id="p" fill="#fff">
                <use xlink:href="#o"/>
            </mask>
            <path fill="#FFF" d="M22.486 18.587a2.283 2.283 0 0 1 1.95-3.53L21.81 13.4c.247.365.468 1.044.463 1.274-.03 1.26-1.016 2.167-2.12 2.109l2.333 1.805z" mask="url(#p)"/>
        </g>
        <path fill="#FFF" d="M28.286 14.94a2.16 2.16 0 1 0 3.602 2.383 2.16 2.16 0 0 0-3.602-2.383"/>
        <path fill="#FFF" d="M28.025 15.466a.854.854 0 0 0-1.266-1.09l1.036-1.699a1.216 1.216 0 0 0 1.654 1.387l-1.424 1.402z"/>
    </g>
</svg>
